<?xml version="1.0" encoding="utf-8"?>
<!-- Generator: Adobe Illustrator 16.0.0, SVG Export Plug-In . SVG Version: 6.00 Build 0)  -->
<!DOCTYPE svg PUBLIC "-//W3C//DTD SVG 1.1//EN" "http://www.w3.org/Graphics/SVG/1.1/DTD/svg11.dtd">
<svg xmlns="http://www.w3.org/2000/svg" xmlns:xlink="http://www.w3.org/1999/xlink" version="1.1" id="Prawn" x="0px" y="0px" width="512" height="512" viewBox="0 0 144.083 144" enable-background="new 0 0 144.083 144" xml:space="preserve">
<path d="M122.488,76.4c0-18.885-13.381-33.126-31.125-33.126c-0.08,0-0.154,0.018-0.232,0.023H43.689  c-2.939-1.28-4.864-3.049-5.7-5.276c-1.606-4.276,0.951-9.207,0.999-9.299c0.781-1.455,0.239-3.269-1.214-4.057  c-1.457-0.788-3.277-0.248-4.067,1.208c-0.144,0.265-3.137,5.921-1.951,12.026c-5.187-6.263-4.055-15.745-4.041-15.859  c0.214-1.64-0.939-3.144-2.579-3.362c-1.643-0.22-3.15,0.936-3.369,2.578c-0.068,0.509-1.575,12.563,5.724,20.897  c3.243,3.703,7.637,6.045,13.106,7.001c1.386,12.558,11.789,22.435,24.575,22.998c0.294,0.097,0.604,0.162,0.93,0.162  c12.082,0,19.896,2.866,23.226,8.518c4.068,6.905,0.805,16.674-1.235,21.413c-2.888-3.978-9.609-8.599-25.292-8.599  c-1.657,0-3,1.343-3,3c0,6.763,5.33,10.939,9.766,13.245c-3.058,2.527-6.244,6.571-6.244,12.456c0,1.657,1.343,3,3,3  c13.849,0,22.755-7.934,23.834-15.864C108.054,109.069,122.488,94.394,122.488,76.4z M69.916,119.118  c1.801-4.712,7.102-6.899,7.362-7.005c1.206-0.474,1.969-1.669,1.896-2.962c-0.073-1.294-0.972-2.396-2.223-2.729  c-0.093-0.025-7.672-2.179-10.279-6.669c16.197,0.935,17.519,7.696,17.599,8.259C84.19,112.169,79.124,117.909,69.916,119.118z   M116.381,73.825c-0.219,0.295-0.392,0.63-0.493,1.006c-1.145,4.242-4.145,7.591-8.232,9.185c-3.236,1.266-6.8,1.25-10.036-0.043  c-0.283-0.113-0.572-0.166-0.861-0.189c-0.422-2.047-1.127-4.062-2.24-5.962c4.129-0.913,7.929-2.979,10.97-6.023  c3.235-3.234,5.355-7.375,6.17-11.789C114.291,63.876,115.965,68.594,116.381,73.825z M46.73,49.638  c0.455-0.019,0.878-0.141,1.259-0.34h37.992c-1.451,9.545-9.714,16.884-19.657,16.884C56.498,66.182,48.326,59.015,46.73,49.638z   M80.411,67.996c6.302-4.106,10.711-10.877,11.617-18.704c5.249,0.133,10,1.838,13.891,4.724c0.594,4.969-1.129,9.997-4.674,13.541  c-2.949,2.951-6.87,4.652-11.04,4.79c-0.174,0.006-0.342,0.034-0.507,0.068C87.195,70.488,84.101,69.01,80.411,67.996z   M94.254,103.064c1.302-3.318,2.717-7.979,2.958-12.896c1.795,0.522,3.64,0.785,5.484,0.785c2.419,0,4.838-0.449,7.142-1.349  c1.57-0.613,3.036-1.429,4.377-2.403C110.658,95.348,103.231,101.43,94.254,103.064z"/>
<circle cx="66.168" cy="56.178" r="4.027"/>
</svg>
