<svg height="512pt" viewBox="0 0 512 512" width="512pt" xmlns="http://www.w3.org/2000/svg"><path d="m256 0c-140.960938 0-256 115.050781-256 256 0 140.960938 115.050781 256 256 256 140.960938 0 256-115.050781 256-256 0-140.960938-115.050781-256-256-256zm-226 256c0-124.617188 101.382812-226 226-226 56.921875 0 108.988281 21.160156 148.769531 56.019531l-141.183593 141.183594c-5.078126-13.574219-12.683594-26.160156-22.585938-37.175781v-39.027344h15v-30h-120v30h15v39.027344c-19.394531 21.570312-30 49.167968-30 78.398437v101.359375l-34.980469 34.980469c-34.859375-39.777344-56.019531-91.84375-56.019531-148.765625zm206.605469-15h-81.210938c7.917969-24.054688 23.394531-36.101562 25.605469-38.785156v-51.214844h30v51.214844c2.191406 2.660156 17.671875 14.683594 25.605469 38.785156zm-16.820313 30-68.785156 68.785156v-68.785156zm21.214844 21.214844v68.785156h-68.785156zm15 189.785156c-56.921875 0-108.988281-21.160156-148.765625-56.019531l34.980469-34.980469h128.785156s-.054688-126.617188-.15625-128.628906l155.136719-155.136719c34.859375 39.777344 56.019531 91.84375 56.019531 148.765625 0 124.617188-101.382812 226-226 226zm0 0"/><path d="m317.757812 391h86.484376l18.75-150h-123.984376zm60-30h-33.515624l-3.75-30h41.015624zm11.25-90-3.75 30h-48.515624l-3.75-30zm0 0"/></svg>