<?xml version="1.0" encoding="iso-8859-1"?>
<!-- Generator: Adobe Illustrator 19.0.0, SVG Export Plug-In . SVG Version: 6.00 Build 0)  -->
<svg version="1.1" id="Capa_1" xmlns="http://www.w3.org/2000/svg" xmlns:xlink="http://www.w3.org/1999/xlink" x="0px" y="0px"
	 viewBox="0 0 512 512" style="enable-background:new 0 0 512 512;" xml:space="preserve">
<g>
	<g>
		<path d="M507.589,486.293L341.5,320.203c14.347-3.237,29.814-10.066,46.203-20.43c11.803-7.463,18.85-20.253,18.849-34.214
			c0-4.673-0.806-9.207-2.3-13.462c16.163-2.449,33.858-9.694,52.787-21.662c11.803-7.463,18.85-20.252,18.85-34.213
			s-7.047-26.75-18.85-34.215c-8.658-5.473-17.055-9.951-25.169-13.446c5.223-3.308,10.092-7.067,14.374-11.348
			c13.619-13.618,23.653-34.41,29.825-61.799c3.069-13.623-0.992-27.65-10.863-37.522c-9.872-9.871-23.897-13.934-37.522-10.863
			c-27.388,6.171-48.18,16.206-61.798,29.824c-4.277,4.277-8.032,9.14-11.337,14.357c-3.492-8.099-7.961-16.478-13.423-25.119
			c-7.462-11.803-20.252-18.849-34.214-18.849c-13.962,0-26.751,7.047-34.214,18.85c-11.968,18.93-19.213,36.625-21.662,52.787
			c-4.255-1.493-8.789-2.299-13.463-2.299c-13.961,0-26.75,7.047-34.214,18.85c-10.362,16.39-17.192,31.856-20.429,46.203
			L25.707,4.41c-5.88-5.88-15.415-5.88-21.296,0c-5.881,5.88-5.881,15.415,0,21.296l144.977,144.977
			c-6.273,3.243-11.687,8.121-15.615,14.334c-15.003,23.73-22.61,45.527-22.61,64.787c0,32.932,23.039,67.225,36.443,84.391
			L34.865,446.939c-5.881,5.88-5.881,15.415,0,21.296c2.94,2.94,6.795,4.411,10.648,4.411s7.708-1.471,10.648-4.411l112.738-112.738
			c17.153,13.399,51.472,36.473,84.429,36.473c19.26,0,41.057-7.607,64.788-22.61c6.212-3.928,11.09-9.34,14.333-15.614
			L486.292,507.59c2.941,2.94,6.796,4.41,10.65,4.41c3.854,0,7.708-1.471,10.648-4.411
			C513.47,501.709,513.47,492.173,507.589,486.293z M387.182,78.15c9.392-9.392,25.687-16.91,47.122-21.739
			c0.841-0.19,1.635-0.272,2.381-0.272c3.713,0,6.214,2.041,7.225,3.051c1.213,1.214,3.911,4.578,2.779,9.605
			c-4.83,21.436-12.347,37.73-21.739,47.122c-14.506,14.506-42.426,21.596-62.36,24.593
			C365.588,120.572,372.677,92.656,387.182,78.15z M392.253,169.516c13.282,0,30.12,6.207,48.692,17.948
			c4.357,2.756,4.828,7.044,4.828,8.759c0,1.715-0.471,6.002-4.827,8.756c-18.573,11.742-35.41,17.949-48.693,17.949
			c-20.515,0-45.271-14.73-61.485-26.706C346.987,184.243,371.741,169.516,392.253,169.516z M298.154,62.189
			c2.755-4.357,7.043-4.828,8.757-4.828s6.002,0.471,8.757,4.827c11.742,18.574,17.949,35.41,17.949,48.693
			c0,20.515-14.729,45.271-26.705,61.485c-11.98-16.219-26.706-40.973-26.706-61.485C280.206,97.598,286.412,80.761,298.154,62.189z
			 M228.816,131.527c2.755-4.357,7.042-4.828,8.757-4.828s6.002,0.471,8.757,4.827c11.743,18.573,17.949,35.409,17.949,48.693
			c0,14.823-7.691,31.858-16.475,46.288l-35.795-35.795c-0.73-3.574-1.141-7.093-1.141-10.493
			C210.868,166.936,217.074,150.098,228.816,131.527z M167.989,311.291c-11.98-16.219-26.706-40.973-26.706-61.485
			c-0.001-13.284,6.205-30.121,17.948-48.692c2.755-4.357,7.043-4.828,8.757-4.828c1.715,0,6.003,0.471,8.757,4.827
			c11.743,18.573,17.949,35.409,17.949,48.693C194.694,270.321,179.964,295.077,167.989,311.291z M302.022,343.903
			c-18.573,11.742-35.41,17.949-48.693,17.949c-20.515,0-45.271-14.729-61.485-26.706c16.219-11.98,40.973-26.706,61.485-26.706
			c13.282,0,30.12,6.207,48.693,17.949c4.356,2.754,4.827,7.042,4.827,8.756C306.848,336.862,306.378,341.149,302.022,343.903z
			 M322.916,292.267c-3.4,0-6.918-0.412-10.494-1.141l-35.795-35.795c14.43-8.786,31.466-16.475,46.288-16.475
			c13.283,0,30.121,6.207,48.693,17.949c4.356,2.754,4.827,7.042,4.827,8.756c0,1.715-0.471,6.002-4.827,8.757
			C353.036,286.059,336.199,292.267,322.916,292.267z"/>
	</g>
</g>
<g>
</g>
<g>
</g>
<g>
</g>
<g>
</g>
<g>
</g>
<g>
</g>
<g>
</g>
<g>
</g>
<g>
</g>
<g>
</g>
<g>
</g>
<g>
</g>
<g>
</g>
<g>
</g>
<g>
</g>
</svg>
