<svg height="512pt" viewBox="-61 0 512 512" width="512pt" xmlns="http://www.w3.org/2000/svg"><path d="m223.042969 421.097656c45.3125-11.328125 76.957031-51.859375 76.957031-98.5625 0-8.28125-6.714844-15-15-15s-15 6.71875-15 15c0 32.914063-22.300781 61.476563-54.234375 69.457032-8.035156 2.011718-12.921875 10.15625-10.914063 18.191406 2 8.003906 10.121094 12.929687 18.191407 10.914062zm0 0"/><path d="m225 30h30c8.285156 0 15-6.714844 15-15s-6.714844-15-15-15h-30c-24.8125 0-45 20.1875-45 45v15.363281c-101.382812 4.980469-180 62.347657-180 164.636719 0 8.285156 6.714844 15 15 15h15v82.53125c0 74.292969 50.339844 138.765625 122.414062 156.785156 3.21875.804688 6.15625 2.46875 8.5 4.8125l23.480469 23.476563c2.8125 2.816406 6.625 4.394531 10.605469 4.394531s7.792969-1.578125 10.605469-4.394531l23.476562-23.476563c2.347657-2.347656 5.285157-4.011718 8.503907-4.816406 72.074218-18.015625 122.414062-82.488281 122.414062-156.78125v-82.53125h15c8.285156 0 15-6.714844 15-15 0-102.304688-78.628906-159.65625-180-164.636719v-15.363281c0-8.269531 6.730469-15 15-15zm105 292.53125c0 60.5-40.992188 113.003906-99.6875 127.679688-8.492188 2.125-16.25 6.515624-22.441406 12.703124l-12.871094 12.871094-12.871094-12.871094c-6.191406-6.1875-13.949218-10.582031-22.4375-12.703124-58.699218-14.675782-99.691406-67.179688-99.691406-127.679688v-82.53125h270zm29.320312-112.53125h-328.644531c8.164063-88.128906 88.703125-120 164.324219-120s156.160156 31.871094 164.320312 120zm0 0"/></svg>