<?xml version="1.0" encoding="iso-8859-1"?>
<!-- Generator: Adobe Illustrator 21.0.0, SVG Export Plug-In . SVG Version: 6.00 Build 0)  -->
<svg xmlns="http://www.w3.org/2000/svg" xmlns:xlink="http://www.w3.org/1999/xlink" version="1.1" id="Capa_1" x="0px" y="0px" viewBox="0 0 512 512" style="enable-background:new 0 0 512 512;" xml:space="preserve" width="512" height="512">
<g>
	<g>
		<path d="M379.269,0c-68.668,0-125.406,51.938-132.073,119.467c-68.571,4.352-123.372,59.1-127.729,127.729    C51.937,253.864,0,310.602,0,379.27V512h132.731c68.668,0,125.406-51.941,132.073-119.471    c29.495-1.903,57.741-13.34,80.182-32.591l-9.767-11.385c-19.6,16.814-44.178,26.926-69.905,28.899V355.3h-15v29.784    C247.265,447.852,195.644,497,132.731,497H15V379.27c0-60.31,45.168-110.238,104.2-116.953v21.869h15v-29.914    c0.893-63.311,49.972-115.003,112.485-119.724V156.7h15v-29.784C264.735,64.148,316.356,15,379.269,15H497v117.73    c0,60.31-45.168,110.238-104.2,116.953v-21.869h-15v29.915c-0.401,28.454-10.787,55.973-29.247,77.491l11.385,9.766    c19.251-22.44,30.688-50.687,32.591-80.182C460.058,258.137,512,201.398,512,132.73V0H379.269z"/>
		<path d="M432.731,189.418c30.437-30.439,30.443-79.706,0-110.149c-30.438-30.438-79.707-30.442-110.149,0    c-30.438,30.438-30.442,79.705,0,110.149c26.265,26.263,67.616,30.247,98.309,9.728l-8.337-12.471    c-24.831,16.602-58.208,13.294-79.366-7.864c-24.576-24.577-24.579-64.357,0-88.935c24.574-24.576,64.356-24.582,88.936,0    c24.575,24.573,24.58,64.355,0,88.935L432.731,189.418z"/>
		<path d="M311.074,311.075c30.368-30.369,30.368-79.781,0-110.15c-30.368-30.367-79.78-30.367-110.148,0    c-30.368,30.369-30.368,79.781,0,110.15C231.293,341.442,280.705,341.443,311.074,311.075z M211.532,211.532    c24.514-24.515,64.413-24.524,88.936,0c24.52,24.52,24.52,64.416,0,88.936c-24.519,24.521-64.416,24.521-88.936,0    C187.013,275.948,187.013,236.052,211.532,211.532z"/>
		<path d="M128.509,305.604c-43.046,0-77.887,34.834-77.887,77.887c0,43.234,35.006,77.851,77.887,77.851    c42.884,0,77.887-34.62,77.887-77.851C206.396,340.445,171.56,305.604,128.509,305.604z M172.977,427.959    c-24.52,24.52-64.417,24.521-88.936,0c-11.877-11.878-18.419-27.67-18.419-44.468c0-34.756,28.126-62.887,62.887-62.887    c34.755,0,62.887,28.126,62.887,62.887C191.396,400.289,184.854,416.081,172.977,427.959z"/>
	</g>
	<g>
		<path d="M302.874,265.742l-14.69-3.033c0.798-3.866,0.927-7.996,0.233-12.163l14.796-2.465    C304.167,253.807,304.1,259.804,302.874,265.742z M286.106,242.761c-1.636-3.736-3.941-7.105-6.851-10.015l10.605-10.607    c4.237,4.236,7.596,9.149,9.985,14.604L286.106,242.761z"/>
	</g>
</g>















</svg>
